<mxfile host="app.diagrams.net" agent="Mozilla/5.0 (Windows NT 10.0; Win64; x64; rv:132.0) Gecko/20100101 Firefox/132.0" version="24.9.1">
  <diagram name="第 1 页" id="5KnpeLFPrI21rLdGUasC">
    <mxGraphModel dx="2074" dy="1106" grid="1" gridSize="10" guides="1" tooltips="1" connect="1" arrows="1" fold="1" page="1" pageScale="1" pageWidth="827" pageHeight="1169" math="0" shadow="0">
      <root>
        <mxCell id="0" />
        <mxCell id="1" parent="0" />
        <mxCell id="PxPOKb2OT-feB7elJlty-7" style="edgeStyle=orthogonalEdgeStyle;rounded=0;orthogonalLoop=1;jettySize=auto;html=1;exitX=0.5;exitY=1;exitDx=0;exitDy=0;entryX=0.5;entryY=0;entryDx=0;entryDy=0;" edge="1" parent="1" source="PxPOKb2OT-feB7elJlty-1" target="PxPOKb2OT-feB7elJlty-3">
          <mxGeometry relative="1" as="geometry" />
        </mxCell>
        <mxCell id="PxPOKb2OT-feB7elJlty-1" value="&lt;font style=&quot;font-size: 26px;&quot;&gt;水灾害防御系统&lt;/font&gt;" style="rounded=0;whiteSpace=wrap;html=1;fillColor=#f8cecc;strokeColor=#b85450;" vertex="1" parent="1">
          <mxGeometry x="160" y="260" width="480" height="60" as="geometry" />
        </mxCell>
        <mxCell id="PxPOKb2OT-feB7elJlty-2" value="&lt;font style=&quot;font-size: 28px;&quot;&gt;讯险预警&lt;/font&gt;" style="rounded=0;whiteSpace=wrap;html=1;fillColor=#d5e8d4;strokeColor=#a7c752;" vertex="1" parent="1">
          <mxGeometry x="250" y="420" width="50" height="310" as="geometry" />
        </mxCell>
        <mxCell id="PxPOKb2OT-feB7elJlty-3" value="&lt;font style=&quot;font-size: 28px;&quot;&gt;防汛预案&lt;/font&gt;" style="rounded=0;whiteSpace=wrap;html=1;fillColor=#d5e8d4;strokeColor=#a7c752;" vertex="1" parent="1">
          <mxGeometry x="375" y="420" width="50" height="310" as="geometry" />
        </mxCell>
        <mxCell id="PxPOKb2OT-feB7elJlty-4" value="&lt;font style=&quot;font-size: 28px;&quot;&gt;洪水预报&lt;/font&gt;" style="rounded=0;whiteSpace=wrap;html=1;fillColor=#d5e8d4;strokeColor=#a7c752;" vertex="1" parent="1">
          <mxGeometry x="120" y="420" width="50" height="310" as="geometry" />
        </mxCell>
        <mxCell id="PxPOKb2OT-feB7elJlty-5" value="&lt;font style=&quot;font-size: 28px;&quot;&gt;物资管理&lt;/font&gt;" style="rounded=0;whiteSpace=wrap;html=1;fillColor=#d5e8d4;strokeColor=#a7c752;" vertex="1" parent="1">
          <mxGeometry x="500" y="420" width="50" height="310" as="geometry" />
        </mxCell>
        <mxCell id="PxPOKb2OT-feB7elJlty-6" value="&lt;font style=&quot;font-size: 28px;&quot;&gt;调度评价&lt;/font&gt;" style="rounded=0;whiteSpace=wrap;html=1;fillColor=#d5e8d4;strokeColor=#a7c752;" vertex="1" parent="1">
          <mxGeometry x="630" y="420" width="50" height="310" as="geometry" />
        </mxCell>
        <mxCell id="PxPOKb2OT-feB7elJlty-11" value="" style="endArrow=none;html=1;rounded=0;" edge="1" parent="1">
          <mxGeometry width="50" height="50" relative="1" as="geometry">
            <mxPoint x="150" y="370" as="sourcePoint" />
            <mxPoint x="400" y="370" as="targetPoint" />
          </mxGeometry>
        </mxCell>
        <mxCell id="PxPOKb2OT-feB7elJlty-12" value="" style="endArrow=none;html=1;rounded=0;" edge="1" parent="1">
          <mxGeometry width="50" height="50" relative="1" as="geometry">
            <mxPoint x="400" y="370" as="sourcePoint" />
            <mxPoint x="650" y="370" as="targetPoint" />
          </mxGeometry>
        </mxCell>
        <mxCell id="PxPOKb2OT-feB7elJlty-14" value="" style="endArrow=classic;html=1;rounded=0;entryX=0.5;entryY=0;entryDx=0;entryDy=0;" edge="1" parent="1" target="PxPOKb2OT-feB7elJlty-4">
          <mxGeometry width="50" height="50" relative="1" as="geometry">
            <mxPoint x="145" y="370" as="sourcePoint" />
            <mxPoint x="110" y="380" as="targetPoint" />
          </mxGeometry>
        </mxCell>
        <mxCell id="PxPOKb2OT-feB7elJlty-15" value="" style="endArrow=classic;html=1;rounded=0;entryX=0.5;entryY=0;entryDx=0;entryDy=0;" edge="1" parent="1">
          <mxGeometry width="50" height="50" relative="1" as="geometry">
            <mxPoint x="274.5" y="370" as="sourcePoint" />
            <mxPoint x="274.5" y="420" as="targetPoint" />
          </mxGeometry>
        </mxCell>
        <mxCell id="PxPOKb2OT-feB7elJlty-16" value="" style="endArrow=classic;html=1;rounded=0;entryX=0.5;entryY=0;entryDx=0;entryDy=0;" edge="1" parent="1">
          <mxGeometry width="50" height="50" relative="1" as="geometry">
            <mxPoint x="524.5" y="370" as="sourcePoint" />
            <mxPoint x="524.5" y="420" as="targetPoint" />
          </mxGeometry>
        </mxCell>
        <mxCell id="PxPOKb2OT-feB7elJlty-17" value="" style="endArrow=classic;html=1;rounded=0;entryX=0.5;entryY=0;entryDx=0;entryDy=0;" edge="1" parent="1">
          <mxGeometry width="50" height="50" relative="1" as="geometry">
            <mxPoint x="654.5" y="370" as="sourcePoint" />
            <mxPoint x="654.5" y="420" as="targetPoint" />
          </mxGeometry>
        </mxCell>
      </root>
    </mxGraphModel>
  </diagram>
</mxfile>
